<svg width="32" height="32" viewBox="0 0 32 32" xmlns="http://www.w3.org/2000/svg">
  <!-- Fundo com gradiente -->
  <defs>
    <linearGradient id="bgGradient" x1="0%" y1="0%" x2="100%" y2="100%">
      <stop offset="0%" style="stop-color:#1a1a2e;stop-opacity:1" />
      <stop offset="100%" style="stop-color:#16213e;stop-opacity:1" />
    </linearGradient>
    <linearGradient id="ballGradient" x1="0%" y1="0%" x2="100%" y2="100%">
      <stop offset="0%" style="stop-color:#ff6b35;stop-opacity:1" />
      <stop offset="50%" style="stop-color:#f7931e;stop-opacity:1" />
      <stop offset="100%" style="stop-color:#ff4757;stop-opacity:1" />
    </linearGradient>
    <filter id="glow">
      <feGaussianBlur stdDeviation="1" result="coloredBlur"/>
      <feMerge> 
        <feMergeNode in="coloredBlur"/>
        <feMergeNode in="SourceGraphic"/>
      </feMerge>
    </filter>
  </defs>
  
  <!-- Fundo -->
  <rect width="32" height="32" fill="url(#bgGradient)" rx="4"/>
  
  <!-- Tijolos coloridos (fundo) -->
  <rect x="2" y="4" width="6" height="3" fill="#3498db" stroke="#2980b9" stroke-width="0.5"/>
  <rect x="9" y="4" width="6" height="3" fill="#f1c40f" stroke="#f39c12" stroke-width="0.5"/>
  <rect x="16" y="4" width="6" height="3" fill="#e74c3c" stroke="#c0392b" stroke-width="0.5"/>
  <rect x="23" y="4" width="6" height="3" fill="#9b59b6" stroke="#8e44ad" stroke-width="0.5"/>
  
  <rect x="2" y="8" width="6" height="3" fill="#2ecc71" stroke="#27ae60" stroke-width="0.5"/>
  <rect x="9" y="8" width="6" height="3" fill="#34495e" stroke="#2c3e50" stroke-width="0.5"/>
  <rect x="16" y="8" width="6" height="3" fill="#e67e22" stroke="#d35400" stroke-width="0.5"/>
  <rect x="23" y="8" width="6" height="3" fill="#1abc9c" stroke="#16a085" stroke-width="0.5"/>
  
  <!-- Bolinha principal -->
  <circle cx="16" cy="20" r="4" fill="url(#ballGradient)" filter="url(#glow)" stroke="#fff" stroke-width="0.5"/>
  
  <!-- Reflexo na bolinha -->
  <ellipse cx="14.5" cy="18.5" rx="1.5" ry="1" fill="#fff" opacity="0.6"/>
  
  <!-- Plataforma -->
  <rect x="12" y="26" width="8" height="2" fill="#ff6b35" stroke="#e55a2b" stroke-width="0.5" rx="1"/>
  
  <!-- Partículas de efeito -->
  <circle cx="8" cy="16" r="1" fill="#f1c40f" opacity="0.8"/>
  <circle cx="24" cy="14" r="1" fill="#e74c3c" opacity="0.8"/>
  <circle cx="6" cy="22" r="0.8" fill="#9b59b6" opacity="0.7"/>
  <circle cx="26" cy="20" r="0.8" fill="#2ecc71" opacity="0.7"/>
</svg>
